<mxfile host="app.diagrams.net" modified="2023-07-03T02:46:17.939Z" agent="Mozilla/5.0 (Windows NT 10.0; Win64; x64) AppleWebKit/537.36 (KHTML, like Gecko) Chrome/114.0.0.0 Safari/537.36" etag="Wo8gmkmbUZojx_1xXCrS" version="21.4.0" type="github">
  <diagram name="第 1 页" id="9jdwf470J4pc7Zmwu0xL">
    <mxGraphModel dx="2603" dy="2410" grid="1" gridSize="10" guides="1" tooltips="1" connect="1" arrows="1" fold="1" page="1" pageScale="1" pageWidth="1169" pageHeight="1654" math="0" shadow="0">
      <root>
        <mxCell id="0" />
        <mxCell id="1" parent="0" />
        <mxCell id="_fyd9bIktOLOAgwyysbq-1" value="uDAP-frontend" style="rounded=0;whiteSpace=wrap;html=1;horizontal=1;verticalAlign=top;align=right;" vertex="1" parent="1">
          <mxGeometry x="220" y="850" width="590" height="280" as="geometry" />
        </mxCell>
        <mxCell id="_fyd9bIktOLOAgwyysbq-2" value="uDAP-backend" style="rounded=0;whiteSpace=wrap;html=1;horizontal=1;verticalAlign=top;align=right;" vertex="1" parent="1">
          <mxGeometry x="220" y="530" width="590" height="290" as="geometry" />
        </mxCell>
        <mxCell id="_fyd9bIktOLOAgwyysbq-3" value="" style="edgeStyle=orthogonalEdgeStyle;rounded=0;orthogonalLoop=1;jettySize=auto;html=1;" edge="1" parent="1" source="_fyd9bIktOLOAgwyysbq-10" target="_fyd9bIktOLOAgwyysbq-11">
          <mxGeometry relative="1" as="geometry" />
        </mxCell>
        <mxCell id="_fyd9bIktOLOAgwyysbq-4" style="edgeStyle=none;rounded=0;orthogonalLoop=1;jettySize=auto;html=1;exitX=0.5;exitY=0;exitDx=0;exitDy=0;entryX=0.5;entryY=1;entryDx=0;entryDy=0;" edge="1" parent="1" source="_fyd9bIktOLOAgwyysbq-10" target="_fyd9bIktOLOAgwyysbq-22">
          <mxGeometry relative="1" as="geometry" />
        </mxCell>
        <mxCell id="_fyd9bIktOLOAgwyysbq-5" style="edgeStyle=orthogonalEdgeStyle;rounded=0;orthogonalLoop=1;jettySize=auto;html=1;exitX=0;exitY=1;exitDx=0;exitDy=0;entryX=0;entryY=0.5;entryDx=0;entryDy=0;" edge="1" parent="1" source="_fyd9bIktOLOAgwyysbq-10" target="_fyd9bIktOLOAgwyysbq-31">
          <mxGeometry relative="1" as="geometry">
            <Array as="points">
              <mxPoint x="120" y="655" />
            </Array>
          </mxGeometry>
        </mxCell>
        <mxCell id="_fyd9bIktOLOAgwyysbq-6" value="step 3&lt;br&gt;callback" style="edgeLabel;html=1;align=center;verticalAlign=middle;resizable=0;points=[];" vertex="1" connectable="0" parent="_fyd9bIktOLOAgwyysbq-5">
          <mxGeometry x="-0.4667" y="-4" relative="1" as="geometry">
            <mxPoint as="offset" />
          </mxGeometry>
        </mxCell>
        <mxCell id="_fyd9bIktOLOAgwyysbq-7" style="edgeStyle=orthogonalEdgeStyle;rounded=0;orthogonalLoop=1;jettySize=auto;html=1;exitX=0.348;exitY=1;exitDx=0;exitDy=0;exitPerimeter=0;" edge="1" parent="1" source="_fyd9bIktOLOAgwyysbq-10" target="_fyd9bIktOLOAgwyysbq-56">
          <mxGeometry relative="1" as="geometry">
            <mxPoint x="370" y="190" as="sourcePoint" />
          </mxGeometry>
        </mxCell>
        <mxCell id="_fyd9bIktOLOAgwyysbq-8" style="edgeStyle=orthogonalEdgeStyle;rounded=0;orthogonalLoop=1;jettySize=auto;html=1;" edge="1" parent="1" source="_fyd9bIktOLOAgwyysbq-10" target="_fyd9bIktOLOAgwyysbq-13">
          <mxGeometry relative="1" as="geometry">
            <Array as="points">
              <mxPoint x="530" y="200" />
              <mxPoint x="530" y="200" />
            </Array>
          </mxGeometry>
        </mxCell>
        <mxCell id="_fyd9bIktOLOAgwyysbq-9" style="edgeStyle=orthogonalEdgeStyle;rounded=0;orthogonalLoop=1;jettySize=auto;html=1;" edge="1" parent="1" source="_fyd9bIktOLOAgwyysbq-10" target="_fyd9bIktOLOAgwyysbq-57">
          <mxGeometry relative="1" as="geometry">
            <Array as="points">
              <mxPoint x="720" y="210" />
              <mxPoint x="720" y="210" />
            </Array>
          </mxGeometry>
        </mxCell>
        <mxCell id="_fyd9bIktOLOAgwyysbq-10" value="cas===center access server&lt;br&gt;中央访问服务" style="rounded=0;whiteSpace=wrap;html=1;" vertex="1" parent="1">
          <mxGeometry x="120" y="60" width="690" height="120" as="geometry" />
        </mxCell>
        <mxCell id="_fyd9bIktOLOAgwyysbq-11" value="open connect id&lt;br&gt;oauth2&amp;nbsp;&lt;br&gt;cas 1.0-cas 3.0" style="rounded=0;whiteSpace=wrap;html=1;" vertex="1" parent="1">
          <mxGeometry x="-110" y="90" width="120" height="60" as="geometry" />
        </mxCell>
        <mxCell id="_fyd9bIktOLOAgwyysbq-12" style="edgeStyle=orthogonalEdgeStyle;rounded=0;orthogonalLoop=1;jettySize=auto;html=1;entryX=0.5;entryY=0;entryDx=0;entryDy=0;" edge="1" parent="1" source="_fyd9bIktOLOAgwyysbq-13" target="_fyd9bIktOLOAgwyysbq-20">
          <mxGeometry relative="1" as="geometry">
            <mxPoint x="530" y="370" as="targetPoint" />
          </mxGeometry>
        </mxCell>
        <mxCell id="_fyd9bIktOLOAgwyysbq-13" value="udap" style="rounded=0;whiteSpace=wrap;html=1;" vertex="1" parent="1">
          <mxGeometry x="470" y="260" width="120" height="60" as="geometry" />
        </mxCell>
        <mxCell id="_fyd9bIktOLOAgwyysbq-14" style="edgeStyle=orthogonalEdgeStyle;rounded=0;orthogonalLoop=1;jettySize=auto;html=1;entryX=1;entryY=0.5;entryDx=0;entryDy=0;" edge="1" parent="1" source="_fyd9bIktOLOAgwyysbq-16" target="_fyd9bIktOLOAgwyysbq-10">
          <mxGeometry relative="1" as="geometry" />
        </mxCell>
        <mxCell id="_fyd9bIktOLOAgwyysbq-15" value="页面定制化" style="edgeLabel;html=1;align=center;verticalAlign=middle;resizable=0;points=[];" vertex="1" connectable="0" parent="_fyd9bIktOLOAgwyysbq-14">
          <mxGeometry x="-0.1148" y="4" relative="1" as="geometry">
            <mxPoint as="offset" />
          </mxGeometry>
        </mxCell>
        <mxCell id="_fyd9bIktOLOAgwyysbq-16" value="登录页面" style="rounded=0;whiteSpace=wrap;html=1;" vertex="1" parent="1">
          <mxGeometry x="911" y="30" width="120" height="40" as="geometry" />
        </mxCell>
        <mxCell id="_fyd9bIktOLOAgwyysbq-17" style="edgeStyle=orthogonalEdgeStyle;rounded=0;orthogonalLoop=1;jettySize=auto;html=1;exitX=0;exitY=0.5;exitDx=0;exitDy=0;entryX=1;entryY=0.5;entryDx=0;entryDy=0;" edge="1" parent="1" source="_fyd9bIktOLOAgwyysbq-18" target="_fyd9bIktOLOAgwyysbq-10">
          <mxGeometry relative="1" as="geometry" />
        </mxCell>
        <mxCell id="_fyd9bIktOLOAgwyysbq-18" value="定制页面，周露沁" style="whiteSpace=wrap;html=1;rounded=0;" vertex="1" parent="1">
          <mxGeometry x="911" y="100" width="120" height="40" as="geometry" />
        </mxCell>
        <mxCell id="_fyd9bIktOLOAgwyysbq-19" style="edgeStyle=orthogonalEdgeStyle;rounded=0;orthogonalLoop=1;jettySize=auto;html=1;exitX=0.5;exitY=1;exitDx=0;exitDy=0;entryX=0.5;entryY=0;entryDx=0;entryDy=0;" edge="1" parent="1" source="_fyd9bIktOLOAgwyysbq-20" target="_fyd9bIktOLOAgwyysbq-28">
          <mxGeometry relative="1" as="geometry">
            <mxPoint x="420" y="510" as="targetPoint" />
          </mxGeometry>
        </mxCell>
        <mxCell id="_fyd9bIktOLOAgwyysbq-20" value="&lt;span&gt;get /thirdparty-login?client-name=oidcClient&lt;/span&gt;" style="rounded=0;whiteSpace=wrap;html=1;" vertex="1" parent="1">
          <mxGeometry x="470" y="410" width="120" height="60" as="geometry" />
        </mxCell>
        <mxCell id="_fyd9bIktOLOAgwyysbq-21" value="" style="edgeStyle=none;rounded=0;orthogonalLoop=1;jettySize=auto;html=1;" edge="1" parent="1" source="_fyd9bIktOLOAgwyysbq-22" target="_fyd9bIktOLOAgwyysbq-24">
          <mxGeometry relative="1" as="geometry" />
        </mxCell>
        <mxCell id="_fyd9bIktOLOAgwyysbq-22" value="验证" style="rounded=0;whiteSpace=wrap;html=1;" vertex="1" parent="1">
          <mxGeometry x="405" y="-40" width="120" height="40" as="geometry" />
        </mxCell>
        <mxCell id="_fyd9bIktOLOAgwyysbq-23" style="edgeStyle=orthogonalEdgeStyle;rounded=0;orthogonalLoop=1;jettySize=auto;html=1;exitX=0.5;exitY=0;exitDx=0;exitDy=0;entryX=0.5;entryY=1;entryDx=0;entryDy=0;" edge="1" parent="1" source="_fyd9bIktOLOAgwyysbq-24" target="_fyd9bIktOLOAgwyysbq-53">
          <mxGeometry relative="1" as="geometry" />
        </mxCell>
        <mxCell id="_fyd9bIktOLOAgwyysbq-24" value="jdbc" style="rounded=0;whiteSpace=wrap;html=1;" vertex="1" parent="1">
          <mxGeometry x="405" y="-110" width="120" height="40" as="geometry" />
        </mxCell>
        <mxCell id="_fyd9bIktOLOAgwyysbq-25" style="edgeStyle=orthogonalEdgeStyle;rounded=0;orthogonalLoop=1;jettySize=auto;html=1;exitX=0;exitY=0.5;exitDx=0;exitDy=0;startArrow=none;" edge="1" parent="1" source="_fyd9bIktOLOAgwyysbq-29">
          <mxGeometry relative="1" as="geometry">
            <mxPoint x="190" y="182" as="targetPoint" />
            <Array as="points">
              <mxPoint x="190" y="580" />
              <mxPoint x="190" y="182" />
            </Array>
          </mxGeometry>
        </mxCell>
        <mxCell id="_fyd9bIktOLOAgwyysbq-26" value="step2&lt;br&gt;oidc/cas/ouath2" style="edgeLabel;html=1;align=center;verticalAlign=middle;resizable=0;points=[];" vertex="1" connectable="0" parent="_fyd9bIktOLOAgwyysbq-25">
          <mxGeometry x="0.12" y="2" relative="1" as="geometry">
            <mxPoint x="2" y="-30" as="offset" />
          </mxGeometry>
        </mxCell>
        <mxCell id="_fyd9bIktOLOAgwyysbq-27" style="edgeStyle=orthogonalEdgeStyle;rounded=0;orthogonalLoop=1;jettySize=auto;html=1;" edge="1" parent="1" source="_fyd9bIktOLOAgwyysbq-28" target="_fyd9bIktOLOAgwyysbq-29">
          <mxGeometry relative="1" as="geometry" />
        </mxCell>
        <mxCell id="_fyd9bIktOLOAgwyysbq-28" value="controller/&lt;br&gt;thridparty-login" style="rounded=0;whiteSpace=wrap;html=1;" vertex="1" parent="1">
          <mxGeometry x="552.5" y="560" width="160" height="40" as="geometry" />
        </mxCell>
        <mxCell id="_fyd9bIktOLOAgwyysbq-29" value="pac4j lib&lt;br&gt;construct client" style="rounded=0;whiteSpace=wrap;html=1;" vertex="1" parent="1">
          <mxGeometry x="290" y="560" width="170" height="40" as="geometry" />
        </mxCell>
        <mxCell id="_fyd9bIktOLOAgwyysbq-30" value="" style="edgeStyle=orthogonalEdgeStyle;rounded=0;orthogonalLoop=1;jettySize=auto;html=1;" edge="1" parent="1" source="_fyd9bIktOLOAgwyysbq-31" target="_fyd9bIktOLOAgwyysbq-33">
          <mxGeometry relative="1" as="geometry" />
        </mxCell>
        <mxCell id="_fyd9bIktOLOAgwyysbq-31" value="controller/&lt;br&gt;thridparty-login/callback" style="rounded=0;whiteSpace=wrap;html=1;" vertex="1" parent="1">
          <mxGeometry x="290" y="630" width="170" height="50" as="geometry" />
        </mxCell>
        <mxCell id="_fyd9bIktOLOAgwyysbq-32" value="" style="edgeStyle=orthogonalEdgeStyle;rounded=0;orthogonalLoop=1;jettySize=auto;html=1;" edge="1" parent="1" source="_fyd9bIktOLOAgwyysbq-33" target="_fyd9bIktOLOAgwyysbq-36">
          <mxGeometry relative="1" as="geometry" />
        </mxCell>
        <mxCell id="_fyd9bIktOLOAgwyysbq-33" value="pac4j lib&amp;nbsp;&lt;br&gt;get profile" style="whiteSpace=wrap;html=1;rounded=0;" vertex="1" parent="1">
          <mxGeometry x="550" y="627.5" width="160" height="55" as="geometry" />
        </mxCell>
        <mxCell id="_fyd9bIktOLOAgwyysbq-34" value="" style="edgeStyle=orthogonalEdgeStyle;rounded=0;orthogonalLoop=1;jettySize=auto;html=1;" edge="1" parent="1" source="_fyd9bIktOLOAgwyysbq-36" target="_fyd9bIktOLOAgwyysbq-38">
          <mxGeometry relative="1" as="geometry" />
        </mxCell>
        <mxCell id="_fyd9bIktOLOAgwyysbq-35" value="" style="edgeStyle=orthogonalEdgeStyle;rounded=0;orthogonalLoop=1;jettySize=auto;html=1;" edge="1" parent="1" source="_fyd9bIktOLOAgwyysbq-36" target="_fyd9bIktOLOAgwyysbq-52">
          <mxGeometry relative="1" as="geometry" />
        </mxCell>
        <mxCell id="_fyd9bIktOLOAgwyysbq-36" value="redis persist profie&amp;nbsp;&lt;br&gt;产生code&lt;br&gt;redirect landingpage" style="rounded=0;whiteSpace=wrap;html=1;" vertex="1" parent="1">
          <mxGeometry x="550" y="720" width="160" height="60" as="geometry" />
        </mxCell>
        <mxCell id="_fyd9bIktOLOAgwyysbq-37" value="" style="edgeStyle=orthogonalEdgeStyle;rounded=0;orthogonalLoop=1;jettySize=auto;html=1;" edge="1" parent="1" source="_fyd9bIktOLOAgwyysbq-38" target="_fyd9bIktOLOAgwyysbq-41">
          <mxGeometry relative="1" as="geometry" />
        </mxCell>
        <mxCell id="_fyd9bIktOLOAgwyysbq-38" value="landing page" style="whiteSpace=wrap;html=1;rounded=0;" vertex="1" parent="1">
          <mxGeometry x="570" y="880" width="120" height="60" as="geometry" />
        </mxCell>
        <mxCell id="_fyd9bIktOLOAgwyysbq-39" value="" style="edgeStyle=orthogonalEdgeStyle;rounded=0;orthogonalLoop=1;jettySize=auto;html=1;" edge="1" parent="1" source="_fyd9bIktOLOAgwyysbq-41" target="_fyd9bIktOLOAgwyysbq-45">
          <mxGeometry relative="1" as="geometry" />
        </mxCell>
        <mxCell id="_fyd9bIktOLOAgwyysbq-40" value="否" style="edgeStyle=orthogonalEdgeStyle;rounded=0;orthogonalLoop=1;jettySize=auto;html=1;" edge="1" parent="1" source="_fyd9bIktOLOAgwyysbq-41" target="_fyd9bIktOLOAgwyysbq-46">
          <mxGeometry relative="1" as="geometry" />
        </mxCell>
        <mxCell id="_fyd9bIktOLOAgwyysbq-41" value="need bind" style="rhombus;whiteSpace=wrap;html=1;rounded=0;" vertex="1" parent="1">
          <mxGeometry x="590" y="1010" width="80" height="80" as="geometry" />
        </mxCell>
        <mxCell id="_fyd9bIktOLOAgwyysbq-42" value="" style="edgeStyle=orthogonalEdgeStyle;rounded=0;orthogonalLoop=1;jettySize=auto;html=1;startArrow=none;exitX=0;exitY=0.5;exitDx=0;exitDy=0;" edge="1" parent="1" source="_fyd9bIktOLOAgwyysbq-50" target="_fyd9bIktOLOAgwyysbq-47">
          <mxGeometry relative="1" as="geometry" />
        </mxCell>
        <mxCell id="_fyd9bIktOLOAgwyysbq-43" value="否" style="edgeLabel;html=1;align=center;verticalAlign=middle;resizable=0;points=[];" vertex="1" connectable="0" parent="_fyd9bIktOLOAgwyysbq-42">
          <mxGeometry x="0.25" y="1" relative="1" as="geometry">
            <mxPoint as="offset" />
          </mxGeometry>
        </mxCell>
        <mxCell id="_fyd9bIktOLOAgwyysbq-44" style="edgeStyle=orthogonalEdgeStyle;rounded=0;orthogonalLoop=1;jettySize=auto;html=1;exitX=0.5;exitY=0;exitDx=0;exitDy=0;entryX=0.5;entryY=1;entryDx=0;entryDy=0;" edge="1" parent="1" source="_fyd9bIktOLOAgwyysbq-45" target="_fyd9bIktOLOAgwyysbq-50">
          <mxGeometry relative="1" as="geometry" />
        </mxCell>
        <mxCell id="_fyd9bIktOLOAgwyysbq-45" value="绑定流程&lt;br&gt;回传code" style="whiteSpace=wrap;html=1;rounded=0;" vertex="1" parent="1">
          <mxGeometry x="310" y="1020" width="120" height="60" as="geometry" />
        </mxCell>
        <mxCell id="_fyd9bIktOLOAgwyysbq-46" value="获取jwt&lt;br&gt;直接跳转首页" style="whiteSpace=wrap;html=1;rounded=0;" vertex="1" parent="1">
          <mxGeometry x="920" y="1015" width="200" height="70" as="geometry" />
        </mxCell>
        <mxCell id="_fyd9bIktOLOAgwyysbq-47" value="controller/&lt;br&gt;thirdparty-bind?bindCode=?" style="whiteSpace=wrap;html=1;rounded=0;" vertex="1" parent="1">
          <mxGeometry x="240" y="720" width="120" height="60" as="geometry" />
        </mxCell>
        <mxCell id="_fyd9bIktOLOAgwyysbq-48" value="" style="edgeStyle=orthogonalEdgeStyle;rounded=0;orthogonalLoop=1;jettySize=auto;html=1;exitX=1;exitY=0.5;exitDx=0;exitDy=0;" edge="1" parent="1" source="_fyd9bIktOLOAgwyysbq-50" target="_fyd9bIktOLOAgwyysbq-51">
          <mxGeometry relative="1" as="geometry" />
        </mxCell>
        <mxCell id="_fyd9bIktOLOAgwyysbq-49" value="是" style="edgeLabel;html=1;align=center;verticalAlign=middle;resizable=0;points=[];" vertex="1" connectable="0" parent="_fyd9bIktOLOAgwyysbq-48">
          <mxGeometry x="0.3765" y="-1" relative="1" as="geometry">
            <mxPoint as="offset" />
          </mxGeometry>
        </mxCell>
        <mxCell id="_fyd9bIktOLOAgwyysbq-50" value="新注册" style="rhombus;whiteSpace=wrap;html=1;rounded=0;" vertex="1" parent="1">
          <mxGeometry x="320" y="880" width="100" height="80" as="geometry" />
        </mxCell>
        <mxCell id="_fyd9bIktOLOAgwyysbq-51" value="&lt;span&gt;controller/&lt;/span&gt;&lt;br&gt;&lt;span&gt;thirdparty-register?bindCode=?&lt;/span&gt;" style="whiteSpace=wrap;html=1;rounded=0;" vertex="1" parent="1">
          <mxGeometry x="390" y="720" width="120" height="60" as="geometry" />
        </mxCell>
        <mxCell id="_fyd9bIktOLOAgwyysbq-52" value="是否该profile 的 来源+username 已经绑定了用户，&lt;br&gt;是直接构造本系统的登录的用户token，" style="rounded=0;whiteSpace=wrap;html=1;" vertex="1" parent="1">
          <mxGeometry x="920" y="715" width="177.5" height="70" as="geometry" />
        </mxCell>
        <mxCell id="_fyd9bIktOLOAgwyysbq-53" value="自定义校验逻辑" style="rounded=0;whiteSpace=wrap;html=1;" vertex="1" parent="1">
          <mxGeometry x="405" y="-190" width="120" height="40" as="geometry" />
        </mxCell>
        <mxCell id="_fyd9bIktOLOAgwyysbq-54" style="edgeStyle=orthogonalEdgeStyle;rounded=0;orthogonalLoop=1;jettySize=auto;html=1;exitX=0;exitY=0.5;exitDx=0;exitDy=0;entryX=1;entryY=0.5;entryDx=0;entryDy=0;" edge="1" parent="1" source="_fyd9bIktOLOAgwyysbq-55" target="_fyd9bIktOLOAgwyysbq-10">
          <mxGeometry relative="1" as="geometry" />
        </mxCell>
        <mxCell id="_fyd9bIktOLOAgwyysbq-55" value="定制页面，周露沁" style="whiteSpace=wrap;html=1;rounded=0;" vertex="1" parent="1">
          <mxGeometry x="911" y="170" width="120" height="40" as="geometry" />
        </mxCell>
        <mxCell id="_fyd9bIktOLOAgwyysbq-56" value="udss" style="rounded=0;whiteSpace=wrap;html=1;" vertex="1" parent="1">
          <mxGeometry x="300" y="260" width="120" height="60" as="geometry" />
        </mxCell>
        <mxCell id="_fyd9bIktOLOAgwyysbq-57" value="udgs" style="rounded=0;whiteSpace=wrap;html=1;" vertex="1" parent="1">
          <mxGeometry x="660" y="260" width="120" height="60" as="geometry" />
        </mxCell>
      </root>
    </mxGraphModel>
  </diagram>
</mxfile>
